<svg xmlns="http://www.w3.org/2000/svg" width="128" height="128" viewBox="0 0 128 128">
	<defs>
		<linearGradient id="bg" x1="0" y1="0" x2="1" y2="1">
			<stop offset="0" stop-color="#0f1524"/>
			<stop offset="1" stop-color="#111b2f"/>
		</linearGradient>
		<linearGradient id="ring" x1="0" y1="0" x2="1" y2="1">
			<stop offset="0" stop-color="#55f2f4"/>
			<stop offset="1" stop-color="#2aa9ff"/>
		</linearGradient>
		<linearGradient id="core" x1="0" y1="0" x2="0" y2="1">
			<stop offset="0" stop-color="#f5fdff"/>
			<stop offset="1" stop-color="#7ae9ff"/>
		</linearGradient>
	</defs>

	<rect x="2" y="2" width="124" height="124" rx="20" fill="url(#bg)" stroke="#3d4f73" stroke-width="4"/>

	<path d="M64 12 L114 64 L64 116 L14 64 Z" fill="none" stroke="#243757" stroke-width="5" opacity="0.85"/>

	<circle cx="64" cy="64" r="34" fill="#0b1322"/>
	<circle cx="64" cy="64" r="34" fill="none" stroke="url(#ring)" stroke-width="6"/>

	<path d="M64 27 L78 52 L73 88 L64 104 L55 88 L50 52 Z" fill="none" stroke="#1b2b46" stroke-width="7" stroke-linejoin="round"/>
	<path d="M64 27 L78 52 L73 88 L64 104 L55 88 L50 52 Z" fill="url(#core)"/>
	<path d="M64 40 L68 56 L64 88 L60 56 Z" fill="#10203a" opacity="0.92"/>
	<path d="M64 44 L66.2 56 L64 84 L61.8 56 Z" fill="#b6fbff" opacity="0.32"/>
	<path d="M44 64 L57 60 L55 68 Z" fill="#8ff7ff" opacity="0.9"/>
	<path d="M84 64 L71 60 L73 68 Z" fill="#8ff7ff" opacity="0.9"/>

	<circle cx="64" cy="64" r="5" fill="#0f1a2d"/>
	<circle cx="64" cy="64" r="2.5" fill="#d7fbff"/>
</svg>
