<svg xmlns="http://www.w3.org/2000/svg" viewBox="0 0 24 24" fill="none">
  <defs>
    <linearGradient id="g" x1="5" y1="3" x2="18" y2="21" gradientUnits="userSpaceOnUse">
      <stop offset="0" stop-color="#FFD089"/>
      <stop offset="1" stop-color="#E04E10"/>
    </linearGradient>
  </defs>
  <path d="M12 3.2 C14.2 6.2 15.6 8.4 15.4 11.0 C15.2 13.6 13.6 15.4 11.8 17.0 C10.4 14.8 9.7 13.2 9.8 11.2 C9.9 8.8 10.8 6.7 12 3.2 Z" fill="url(#g)" stroke="#FFD089" stroke-width="0.8" stroke-linejoin="round"/>
  <path d="M11.9 8.7 C13.1 10.2 13.7 11.5 13.5 12.9 C13.3 14.3 12.4 15.4 11.5 16.3 C10.8 15.1 10.4 14.2 10.5 13.1 C10.6 11.7 11.1 10.3 11.9 8.7 Z" fill="#FFF0C4" opacity="0.82"/>
  <path d="M7.4 18.4 C9.1 16.5 10.7 15.7 12.5 15.8 C14.3 15.9 15.8 16.8 17.0 18.6" stroke="#FFD089" stroke-width="1.4" stroke-linecap="round"/>
</svg>
